<svg xmlns="http://www.w3.org/2000/svg" width="42" height="42" viewBox="0 0 42 42" fill="none">
<path fill-rule="evenodd" clip-rule="evenodd" d="M20.6505 0C23.3624 0 26.0484 0.534471 28.5539 1.57227C31.0592 2.61006 33.3356 4.13134 35.2531 6.04883C37.1706 7.96638 38.6919 10.2427 39.7296 12.748C40.7674 15.2534 41.3019 17.9386 41.3019 20.6504C41.3019 24.7347 40.0906 28.728 37.8214 32.124C35.5524 35.5198 32.3271 38.1665 28.5539 39.7295C24.7805 41.2925 20.6281 41.7011 16.6222 40.9043C12.6165 40.1075 8.93701 38.1409 6.04899 35.2529C3.16098 32.3649 1.19348 28.6855 0.396642 24.6797C-0.40017 20.6738 0.00942076 16.5215 1.57242 12.748C3.13541 8.97471 5.78199 5.74958 9.17789 3.48047C12.5738 1.2114 16.5663 6.16858e-05 20.6505 0ZM14.2013 14.1064C12.0094 14.1064 10.2136 14.8201 8.81559 16.2461C7.46276 17.7006 6.71267 19.6152 6.71793 21.6016C6.72329 23.5879 7.48342 25.498 8.84391 26.9453C10.2608 28.3624 12.1413 29.0713 14.4845 29.0713C17.205 29.0714 19.2646 28.0601 20.6632 26.0381L17.715 24.3379C16.9968 25.2827 15.9383 25.7549 14.5402 25.7549C12.3675 25.7546 11.0354 24.8668 10.5441 23.0908L21.2296 23.0918C21.321 22.5964 21.3682 22.0936 21.3713 21.5898C21.4255 19.6158 20.6972 17.6999 19.3449 16.2607C18.69 15.5565 17.8921 15.0003 17.005 14.6289C16.1181 14.2576 15.1624 14.0789 14.2013 14.1064ZM30.5597 14.1055C29.5703 14.0946 28.5884 14.2802 27.6711 14.6514C26.7539 15.0225 25.9195 15.5718 25.216 16.2676C24.5125 16.9634 23.9536 17.792 23.5724 18.7051C23.1912 19.6183 22.9943 20.5983 22.9943 21.5879C22.9943 22.5775 23.1912 23.5574 23.5724 24.4707C23.9536 25.3839 24.5124 26.2123 25.216 26.9082C25.9196 27.6041 26.7537 28.1542 27.6711 28.5254C28.4738 28.8502 29.3261 29.0321 30.1896 29.0654L30.5617 29.0703C31.8863 29.0847 33.1899 28.7369 34.3312 28.0645C35.4345 27.4248 36.345 26.4991 36.967 25.3857L33.7921 23.5723C33.5143 24.1522 33.0641 24.6319 32.5031 24.9463C31.9021 25.2833 31.2223 25.4546 30.5334 25.4424C30.0292 25.4578 29.527 25.3693 29.0588 25.1816C28.5906 24.9939 28.1666 24.711 27.8127 24.3516C27.1198 23.5925 26.7355 22.602 26.7355 21.5742C26.7355 20.5464 27.1198 19.556 27.8127 18.7969C28.1666 18.4375 28.5906 18.1546 29.0588 17.9668C29.527 17.779 30.0291 17.6898 30.5334 17.7051C31.2147 17.6954 31.8861 17.8715 32.4748 18.2148C33.0347 18.5374 33.4836 19.0223 33.7638 19.6045L36.9093 17.7617C36.3221 16.6452 35.4262 15.7208 34.3293 15.0977C33.1851 14.4336 31.8826 14.0908 30.5597 14.1055ZM14.2004 17.3936C14.9991 17.3833 15.7801 17.6315 16.4259 18.1016C17.1126 18.6307 17.5729 19.4007 17.715 20.2559H10.4865C10.6489 19.4234 11.1013 18.6754 11.7629 18.1445C12.4663 17.6243 13.3261 17.3594 14.2004 17.3936Z" fill="#F7CA11"/>
</svg>